<?xml version="1.0" encoding="UTF-8"?>
<svg xmlns="http://www.w3.org/2000/svg" xmlns:xlink="http://www.w3.org/1999/xlink" width="px" height="px" viewBox="0 0 22 21" version="1.1">
<defs>
<filter id="alpha" filterUnits="objectBoundingBox" x="0%" y="0%" width="100%" height="100%">
  <feColorMatrix type="matrix" in="SourceGraphic" values="0 0 0 0 1 0 0 0 0 1 0 0 0 0 1 0 0 0 1 0"/>
</filter>
<mask id="mask0">
  <g filter="url(#alpha)">
<rect x="0" y="0" width="22" height="21" style="fill:rgb(0%,0%,0%);fill-opacity:0.501961;stroke:none;"/>
  </g>
</mask>
<clipPath id="clip1">
  <rect x="0" y="0" width="22" height="21"/>
</clipPath>
<g id="surface5" clip-path="url(#clip1)">
<path style=" stroke:none;fill-rule:nonzero;fill:rgb(11.372549%,11.372549%,10.588235%);fill-opacity:1;" d="M 0.9375 7.714844 L 0.957031 7.660156 C 0.960938 7.648438 0.992188 7.542969 1.144531 7.53125 C 1.144531 7.53125 1.222656 7.527344 1.308594 7.554688 C 1.308594 7.554688 1.257812 7.679688 1.050781 7.703125 Z M 21.289062 13.480469 C 21.234375 13.605469 21.015625 13.761719 20.753906 13.847656 C 20.480469 13.9375 19.90625 13.941406 19.617188 13.84375 C 19.617188 13.84375 19.554688 13.78125 19.347656 13.722656 C 18.867188 13.582031 18.714844 13.488281 18.46875 13.265625 C 18.296875 13.109375 18.109375 12.914062 17.925781 12.730469 C 17.84375 12.648438 17.644531 12.453125 17.296875 12.394531 C 16.929688 12.332031 16.039062 12.265625 15.710938 12.152344 C 15.488281 12.074219 15.222656 11.929688 14.894531 11.449219 C 14.738281 11.21875 14.617188 11.148438 14.390625 11.007812 C 14.390625 11.007812 14.5625 11.144531 14.652344 11.304688 C 14.789062 11.542969 14.851562 11.714844 14.925781 11.839844 C 14.996094 11.964844 15.082031 12.078125 15.210938 12.179688 C 15.375 12.308594 15.476562 12.335938 15.664062 12.371094 C 15.835938 12.40625 16.4375 12.433594 16.953125 12.453125 C 17.457031 12.472656 17.675781 12.625 17.832031 12.753906 C 17.980469 12.875 18.210938 13.21875 18.375 13.359375 C 18.589844 13.546875 18.597656 13.550781 18.847656 13.703125 C 18.976562 13.78125 19.089844 13.832031 19.191406 13.871094 C 19.425781 14.003906 19.328125 14.234375 19.328125 14.234375 C 19.261719 14.417969 19.023438 14.488281 18.746094 14.449219 C 18.320312 14.410156 17.957031 14.066406 17.652344 13.820312 C 17.480469 13.683594 17.421875 13.617188 17.097656 13.398438 C 16.601562 13.058594 15.4375 13.085938 15.4375 13.085938 L 14.582031 13.082031 C 12.921875 13.105469 12.3125 11.800781 12.144531 11.527344 C 12.089844 11.429688 12.035156 11.355469 11.984375 11.292969 C 11.910156 11.1875 11.492188 10.65625 11.042969 10.46875 C 11.042969 10.46875 11.472656 10.832031 11.429688 11.027344 C 11.335938 11.027344 11.230469 11.035156 11.109375 11.035156 C 9.433594 11.082031 9.085938 10.992188 8.820312 10.941406 C 8.554688 10.890625 8.109375 10.761719 7.679688 10.566406 C 7.679688 10.566406 7.726562 10.164062 7.558594 9.828125 C 7.558594 9.828125 8.9375 10.308594 10.039062 10.171875 C 10.039062 10.171875 8.265625 10.085938 7.15625 9.222656 C 7.15625 9.222656 7.429688 10.136719 7.214844 10.519531 C 7.214844 10.519531 6.921875 11.214844 5.429688 10.75 C 5.429688 10.75 4.746094 10.488281 4.210938 10.488281 C 4.210938 10.488281 3.8125 10.503906 3.761719 10.707031 C 3.761719 10.707031 3.734375 10.804688 3.839844 10.851562 C 3.839844 10.851562 3.957031 10.882812 3.902344 10.96875 C 3.8125 11.109375 3.6875 11.214844 3.5625 11.277344 C 3.144531 11.257812 3.175781 10.921875 3.175781 10.921875 C 3.183594 10.804688 3.222656 10.722656 3.257812 10.644531 C 3.523438 10.070312 4.441406 9.988281 4.441406 9.988281 C 5.417969 9.890625 6.441406 10.121094 6.441406 10.121094 C 5.710938 9.949219 5.460938 9.824219 5.25 9.652344 C 4.96875 9.425781 4.703125 8.648438 4.703125 8.648438 C 4.589844 9.03125 4.730469 9.410156 4.824219 9.609375 C 4.6875 9.394531 4.488281 9.210938 4.3125 9.074219 C 3.859375 8.71875 3.203125 8.605469 3.203125 8.605469 C 3.015625 8.574219 2.9375 8.382812 2.9375 8.382812 C 2.695312 7.945312 2.421875 7.925781 2.421875 7.925781 C 2.558594 8.105469 2.542969 8.355469 2.542969 8.355469 C 2.542969 8.8125 1.941406 8.960938 1.941406 8.960938 C 1.488281 9.398438 1.410156 9.390625 1.324219 9.394531 C 1.234375 9.402344 1.171875 9.3125 1.171875 9.3125 L 1.191406 9.234375 C 1.265625 9.1875 1.339844 9.128906 1.339844 9.128906 C 1.777344 8.78125 1.839844 8.605469 1.804688 8.367188 C 1.730469 7.886719 1.335938 7.921875 1.335938 7.921875 C 1.152344 7.921875 1.058594 8.0625 1.058594 8.0625 C 0.988281 8.144531 0.828125 8.40625 0.828125 8.40625 C 0.691406 8.628906 0.566406 8.597656 0.566406 8.597656 C 0.414062 8.605469 0.304688 8.472656 0.304688 8.472656 L 0.289062 8.460938 C 0.175781 8.339844 0.269531 8.195312 0.269531 8.195312 C 0.457031 7.875 0.78125 7.84375 0.824219 7.84375 L 1.015625 7.828125 C 1.378906 7.800781 1.613281 7.464844 1.613281 7.464844 C 1.460938 7.390625 1.1875 7.429688 1.1875 7.429688 C 0.925781 7.445312 0.851562 7.722656 0.851562 7.722656 C 0.621094 7.753906 0.632812 7.582031 0.683594 7.539062 C 0.722656 7.492188 0.859375 7.273438 1.742188 7.144531 C 1.742188 7.144531 2.210938 7.054688 3.042969 7.144531 L 3.0625 7.21875 C 2.957031 7.339844 2.632812 7.605469 2.105469 7.476562 C 2.105469 7.476562 2.097656 7.683594 2.667969 7.785156 C 2.667969 7.785156 3.183594 7.890625 4.023438 8.550781 C 4.023438 8.550781 3.617188 7.8125 2.910156 7.589844 L 2.90625 7.511719 C 2.90625 7.511719 3.242188 7.21875 3.828125 7.246094 C 3.828125 7.246094 5.78125 7.34375 6.875 8.460938 C 6.875 8.460938 6.835938 8.273438 6.667969 8.007812 L 6.652344 7.949219 C 6.652344 7.949219 6.667969 7.90625 6.859375 7.941406 C 6.859375 7.941406 7.554688 8.050781 9.171875 8.628906 C 9.171875 8.628906 10.378906 9.042969 11.039062 9.3125 C 12.03125 9.710938 14.519531 10.699219 16.089844 11.546875 C 16.371094 11.699219 17.539062 12.261719 17.539062 12.261719 C 18.414062 12.792969 19.214844 13.175781 19.214844 13.175781 C 20.003906 13.53125 20.582031 13.367188 20.582031 13.367188 C 20.765625 13.300781 21.113281 13.113281 21.25 13.246094 C 21.320312 13.3125 21.324219 13.402344 21.285156 13.484375 Z M 21.484375 13.179688 C 21.382812 12.945312 21.050781 13.003906 21.050781 13.003906 C 20.898438 13.015625 20.707031 13.167969 20.4375 13.222656 C 19.863281 13.335938 19.425781 13.148438 19.425781 13.148438 C 18.578125 12.777344 18.003906 12.375 17.632812 12.164062 C 17.261719 11.957031 15.882812 11.25 14.5 10.574219 C 14.5 10.574219 12.921875 9.785156 10.582031 8.839844 C 10.582031 8.839844 6.070312 6.835938 2.824219 6.835938 C 2.824219 6.835938 1.144531 6.816406 0.574219 7.449219 C 0.574219 7.449219 0.472656 7.53125 0.523438 7.628906 L 0.507812 7.675781 C 0.507812 7.675781 0.257812 7.835938 0.0546875 8.066406 C 0.0546875 8.066406 -0.0546875 8.175781 0.0351562 8.339844 C 0.0351562 8.339844 0.144531 8.523438 0.210938 8.601562 C 0.28125 8.683594 0.417969 8.820312 0.628906 8.800781 C 0.722656 8.792969 0.726562 8.769531 0.726562 8.769531 C 0.824219 8.863281 0.992188 8.871094 0.992188 8.871094 C 0.976562 8.8125 0.910156 8.695312 0.90625 8.628906 C 0.898438 8.550781 0.929688 8.480469 0.929688 8.480469 C 0.964844 8.398438 1.03125 8.292969 1.097656 8.242188 C 1.160156 8.195312 1.308594 8.148438 1.417969 8.222656 C 1.507812 8.285156 1.601562 8.480469 1.496094 8.738281 C 1.496094 8.738281 1.375 8.941406 1.265625 8.964844 L 1.230469 8.964844 C 1.167969 8.964844 1.027344 8.886719 1.027344 8.886719 C 1.027344 8.886719 1.019531 8.902344 1.039062 8.972656 L 1.070312 9.089844 L 1.039062 9.113281 C 1.039062 9.113281 0.949219 9.183594 0.992188 9.285156 C 0.992188 9.285156 1.078125 9.605469 1.320312 9.605469 C 1.535156 9.613281 1.714844 9.410156 1.714844 9.410156 C 2.175781 8.925781 2.824219 8.863281 2.824219 8.863281 C 3.542969 8.816406 4.570312 9.535156 4.851562 9.742188 C 3.785156 9.730469 3.355469 10.128906 3.355469 10.128906 C 2.757812 10.585938 2.992188 11.132812 2.992188 11.132812 C 3.035156 11.253906 3.15625 11.34375 3.234375 11.375 C 3.347656 11.425781 3.441406 11.425781 3.53125 11.417969 C 3.59375 11.410156 3.660156 11.386719 3.695312 11.363281 C 3.777344 11.316406 3.925781 11.222656 3.996094 11.125 C 4.042969 11.074219 4.089844 10.953125 4.058594 10.835938 C 4.058594 10.835938 4.039062 10.742188 4.125 10.726562 C 4.125 10.726562 4.40625 10.65625 4.976562 10.902344 C 4.976562 10.902344 5.597656 11.253906 6.398438 11.324219 C 6.398438 11.324219 7.3125 11.414062 7.535156 10.929688 C 7.535156 10.929688 8.058594 11.140625 8.828125 11.226562 C 8.828125 11.226562 9.574219 11.304688 10.792969 11.214844 C 11.03125 11.195312 11.3125 11.214844 11.3125 11.214844 C 11.699219 11.261719 11.945312 11.457031 12.042969 11.613281 C 12.441406 12.242188 12.917969 13.480469 14.859375 13.433594 L 15.742188 13.410156 C 16.277344 13.410156 16.710938 13.414062 17.136719 13.636719 C 17.324219 13.734375 17.820312 14.210938 18.121094 14.375 C 19.019531 14.964844 19.539062 14.691406 19.539062 14.691406 C 19.847656 14.515625 19.824219 14.203125 19.75 14.03125 C 19.65625 14.003906 20.863281 14.203125 21.378906 13.542969 C 21.5 13.398438 21.523438 13.261719 21.484375 13.175781 Z M 21.484375 13.179688 "/>
</g>
</defs>
<g id="surface1">
<use xlink:href="#surface5" mask="url(#mask0)"/>
</g>
</svg>
