<?xml version="1.0" encoding="UTF-8"?>
<svg xmlns="http://www.w3.org/2000/svg" xmlns:xlink="http://www.w3.org/1999/xlink" width="px" height="px" viewBox="0 0 22 22" version="1.1">
<defs>
<filter id="alpha" filterUnits="objectBoundingBox" x="0%" y="0%" width="100%" height="100%">
  <feColorMatrix type="matrix" in="SourceGraphic" values="0 0 0 0 1 0 0 0 0 1 0 0 0 0 1 0 0 0 1 0"/>
</filter>
<mask id="mask0">
  <g filter="url(#alpha)">
<rect x="0" y="0" width="22" height="22" style="fill:rgb(0%,0%,0%);fill-opacity:0.501961;stroke:none;"/>
  </g>
</mask>
<clipPath id="clip1">
  <rect x="0" y="0" width="22" height="22"/>
</clipPath>
<g id="surface5" clip-path="url(#clip1)">
<path style=" stroke:none;fill-rule:evenodd;fill:rgb(11.372549%,11.372549%,10.588235%);fill-opacity:1;" d="M 18.152344 7.164062 C 17.253906 7.164062 16.425781 7.472656 15.769531 7.992188 C 15.113281 7.472656 14.285156 7.164062 13.382812 7.164062 C 12.484375 7.164062 11.65625 7.472656 11 7.992188 C 10.34375 7.472656 9.515625 7.164062 8.613281 7.164062 C 7.714844 7.164062 6.886719 7.472656 6.230469 7.992188 C 5.574219 7.472656 4.746094 7.164062 3.84375 7.164062 C 1.722656 7.164062 0 8.882812 0 11.007812 C 0 13.132812 1.722656 14.855469 3.84375 14.855469 C 4.746094 14.855469 5.574219 14.542969 6.230469 14.023438 C 6.886719 14.542969 7.714844 14.855469 8.613281 14.855469 C 9.515625 14.855469 10.34375 14.542969 11 14.023438 C 11.65625 14.542969 12.484375 14.855469 13.382812 14.855469 C 14.285156 14.855469 15.113281 14.542969 15.769531 14.023438 C 16.425781 14.542969 17.253906 14.855469 18.152344 14.855469 C 20.277344 14.855469 22 13.132812 22 11.007812 C 22 8.882812 20.277344 7.164062 18.152344 7.164062 Z M 5.601562 13.398438 C 5.113281 13.757812 4.5 13.972656 3.847656 13.972656 C 2.207031 13.972656 0.882812 12.648438 0.882812 11.007812 C 0.882812 9.367188 2.207031 8.042969 3.84375 8.042969 C 4.5 8.042969 5.109375 8.261719 5.601562 8.621094 C 5.078125 9.277344 4.769531 10.105469 4.769531 11.007812 C 4.769531 11.914062 5.082031 12.742188 5.601562 13.398438 Z M 6.230469 12.769531 C 5.867188 12.277344 5.652344 11.667969 5.652344 11.007812 C 5.652344 10.351562 5.867188 9.742188 6.230469 9.25 C 6.597656 9.742188 6.8125 10.347656 6.8125 11.007812 C 6.8125 11.671875 6.597656 12.277344 6.230469 12.769531 Z M 10.371094 13.398438 C 9.878906 13.757812 9.269531 13.972656 8.613281 13.972656 C 7.957031 13.972656 7.351562 13.757812 6.859375 13.398438 C 7.378906 12.742188 7.691406 11.910156 7.691406 11.007812 C 7.691406 10.109375 7.382812 9.277344 6.859375 8.617188 C 7.351562 8.257812 7.953125 8.042969 8.613281 8.042969 C 9.273438 8.042969 9.878906 8.257812 10.371094 8.617188 C 9.847656 9.273438 9.539062 10.105469 9.539062 11.007812 C 9.539062 11.910156 9.851562 12.742188 10.371094 13.398438 Z M 11 12.769531 C 10.636719 12.277344 10.421875 11.667969 10.421875 11.007812 C 10.421875 10.351562 10.636719 9.742188 11 9.25 C 11.367188 9.742188 11.582031 10.347656 11.582031 11.007812 C 11.582031 11.671875 11.367188 12.277344 11 12.769531 Z M 15.140625 13.398438 C 14.648438 13.757812 14.039062 13.972656 13.382812 13.972656 C 12.726562 13.972656 12.121094 13.757812 11.628906 13.398438 C 12.148438 12.742188 12.460938 11.910156 12.460938 11.007812 C 12.460938 10.109375 12.152344 9.277344 11.628906 8.617188 C 12.121094 8.257812 12.722656 8.042969 13.382812 8.042969 C 14.042969 8.042969 14.648438 8.257812 15.140625 8.617188 C 14.617188 9.273438 14.308594 10.105469 14.308594 11.007812 C 14.308594 11.910156 14.621094 12.742188 15.140625 13.398438 Z M 15.769531 12.769531 C 15.40625 12.277344 15.1875 11.667969 15.1875 11.007812 C 15.1875 10.351562 15.402344 9.742188 15.769531 9.25 C 16.136719 9.742188 16.347656 10.347656 16.347656 11.007812 C 16.347656 11.671875 16.132812 12.277344 15.769531 12.769531 Z M 18.15625 13.972656 C 17.5 13.972656 16.890625 13.757812 16.398438 13.398438 C 16.917969 12.742188 17.230469 11.910156 17.230469 11.007812 C 17.230469 10.109375 16.921875 9.277344 16.398438 8.617188 C 16.890625 8.261719 17.503906 8.042969 18.15625 8.042969 C 19.792969 8.042969 21.121094 9.367188 21.121094 11.007812 C 21.121094 12.648438 19.792969 13.972656 18.15625 13.972656 Z M 18.15625 13.972656 "/>
</g>
</defs>
<g id="surface1">
<use xlink:href="#surface5" mask="url(#mask0)"/>
</g>
</svg>
