<?xml version="1.0" encoding="UTF-8"?>
<svg xmlns="http://www.w3.org/2000/svg" xmlns:xlink="http://www.w3.org/1999/xlink" width="px" height="px" viewBox="0 0 22 21" version="1.1">
<defs>
<filter id="alpha" filterUnits="objectBoundingBox" x="0%" y="0%" width="100%" height="100%">
  <feColorMatrix type="matrix" in="SourceGraphic" values="0 0 0 0 1 0 0 0 0 1 0 0 0 0 1 0 0 0 1 0"/>
</filter>
<mask id="mask0">
  <g filter="url(#alpha)">
<rect x="0" y="0" width="22" height="21" style="fill:rgb(0%,0%,0%);fill-opacity:0.501961;stroke:none;"/>
  </g>
</mask>
<clipPath id="clip1">
  <rect x="0" y="0" width="22" height="21"/>
</clipPath>
<g id="surface5" clip-path="url(#clip1)">
<path style=" stroke:none;fill-rule:evenodd;fill:rgb(0%,0%,0%);fill-opacity:1;" d="M 10.75 5.371094 C 4.8125 5.371094 0 7.691406 0 10.554688 C 0 13.417969 4.8125 15.738281 10.75 15.738281 C 16.6875 15.738281 21.503906 13.417969 21.503906 10.554688 C 21.503906 7.691406 16.6875 5.371094 10.75 5.371094 Z M 9.730469 6.523438 C 10.957031 6.101562 14.601562 6.523438 16.019531 7.1875 C 16.472656 7.613281 13.996094 8.976562 11.050781 9.570312 C 6.839844 10.398438 8.84375 7.226562 9.726562 6.523438 Z M 2.496094 12.667969 C 1.574219 12.023438 -0.242188 10.179688 2.761719 8.261719 C 4.347656 7.359375 5.234375 7.152344 6.328125 6.933594 C 6.859375 6.824219 7.238281 6.953125 6.765625 7.339844 C 5.761719 8.355469 3.6875 11.707031 3.5 12.449219 C 3.347656 12.945312 3.042969 13.074219 2.496094 12.667969 Z M 11.144531 14.808594 C 9.371094 14.992188 5.425781 14.421875 5.347656 13.921875 C 5.425781 12.722656 11.617188 10.730469 12.730469 11.839844 C 13.203125 12.707031 12.296875 14.75 11.144531 14.808594 Z M 20.171875 11.320312 C 19.71875 12.335938 18.1875 13.476562 14.980469 14.253906 C 14.488281 14.363281 14.320312 14.070312 14.640625 13.792969 C 15.167969 13.476562 17.71875 9.308594 18.039062 8.480469 C 18.230469 8.054688 18.585938 8.222656 18.8125 8.386719 C 19.832031 9.03125 20.605469 10.082031 20.171875 11.320312 Z M 20.171875 11.320312 "/>
</g>
</defs>
<g id="surface1">
<use xlink:href="#surface5" mask="url(#mask0)"/>
</g>
</svg>
