<?xml version="1.0" encoding="UTF-8"?>
<svg xmlns="http://www.w3.org/2000/svg" xmlns:xlink="http://www.w3.org/1999/xlink" width="px" height="px" viewBox="0 0 22 22" version="1.1">
<defs>
<filter id="alpha" filterUnits="objectBoundingBox" x="0%" y="0%" width="100%" height="100%">
  <feColorMatrix type="matrix" in="SourceGraphic" values="0 0 0 0 1 0 0 0 0 1 0 0 0 0 1 0 0 0 1 0"/>
</filter>
<mask id="mask0">
  <g filter="url(#alpha)">
<rect x="0" y="0" width="22" height="22" style="fill:rgb(0%,0%,0%);fill-opacity:0.501961;stroke:none;"/>
  </g>
</mask>
<clipPath id="clip1">
  <rect x="0" y="0" width="22" height="22"/>
</clipPath>
<g id="surface5" clip-path="url(#clip1)">
<path style=" stroke:none;fill-rule:nonzero;fill:rgb(0%,0%,0%);fill-opacity:1;" d="M 12.722656 11.011719 L 11.765625 12.894531 L 11.746094 12.894531 L 11.695312 11.011719 L 10.894531 11.011719 L 10.863281 11.078125 L 10.933594 11.121094 C 11 11.167969 11.015625 11.214844 11.027344 11.34375 L 11.132812 13.628906 L 12.027344 13.628906 L 13.46875 11.011719 Z M 9.871094 12.367188 C 9.78125 12.625 9.710938 12.789062 9.605469 12.898438 C 9.523438 12.984375 9.414062 13.046875 9.167969 13.046875 C 8.972656 13.046875 8.863281 12.96875 8.863281 12.816406 C 8.863281 12.71875 8.886719 12.570312 8.992188 12.28125 C 9.082031 12.027344 9.152344 11.859375 9.257812 11.75 C 9.339844 11.664062 9.445312 11.601562 9.695312 11.601562 C 9.890625 11.601562 10 11.683594 10 11.832031 C 10 11.929688 9.972656 12.078125 9.871094 12.367188 Z M 9.828125 10.976562 L 9.746094 10.976562 C 9.25 10.976562 8.96875 11.109375 8.738281 11.355469 C 8.449219 11.660156 8.179688 12.484375 8.183594 12.921875 C 8.191406 13.363281 8.476562 13.671875 9.082031 13.671875 L 9.167969 13.671875 C 9.664062 13.671875 9.945312 13.539062 10.179688 13.292969 C 10.464844 12.988281 10.730469 12.164062 10.726562 11.730469 C 10.71875 11.285156 10.433594 10.976562 9.828125 10.976562 Z M 7.40625 11.960938 C 7.359375 12.074219 7.308594 12.101562 7.246094 12.125 C 7.203125 12.144531 7.109375 12.148438 7.019531 12.148438 L 6.675781 12.148438 L 6.863281 11.609375 L 7.28125 11.609375 C 7.402344 11.609375 7.457031 11.671875 7.457031 11.746094 C 7.457031 11.792969 7.4375 11.882812 7.40625 11.960938 Z M 7.34375 11.011719 L 6.210938 11.011719 L 6.1875 11.078125 L 6.234375 11.125 C 6.28125 11.171875 6.28125 11.226562 6.238281 11.347656 L 5.449219 13.628906 L 6.171875 13.628906 L 6.480469 12.722656 L 6.722656 12.726562 L 6.996094 13.628906 L 7.722656 13.628906 L 7.378906 12.703125 C 7.578125 12.671875 7.675781 12.613281 7.777344 12.527344 C 7.914062 12.402344 8.007812 12.226562 8.085938 11.96875 C 8.199219 11.597656 8.128906 11.382812 8.058594 11.273438 C 7.957031 11.125 7.746094 11.011719 7.34375 11.011719 Z M 14.921875 12.578125 L 15.121094 12.03125 L 14.199219 12.03125 L 14.34375 11.613281 L 15.339844 11.613281 L 15.558594 11.007812 L 13.675781 11.007812 L 13.652344 11.085938 L 13.695312 11.128906 C 13.742188 11.175781 13.742188 11.234375 13.699219 11.355469 L 12.914062 13.628906 L 14.675781 13.628906 L 14.886719 13.019531 L 13.859375 13.019531 L 14.011719 12.578125 Z M 17.035156 11.960938 C 16.988281 12.074219 16.9375 12.101562 16.875 12.125 C 16.832031 12.144531 16.738281 12.148438 16.648438 12.148438 L 16.304688 12.148438 L 16.492188 11.609375 L 16.910156 11.609375 C 17.035156 11.609375 17.085938 11.671875 17.085938 11.746094 C 17.085938 11.792969 17.066406 11.882812 17.035156 11.960938 Z M 16.972656 11.011719 L 15.839844 11.011719 L 15.816406 11.078125 L 15.863281 11.125 C 15.914062 11.171875 15.910156 11.226562 15.867188 11.347656 L 15.078125 13.628906 L 15.800781 13.628906 L 16.109375 12.726562 L 16.351562 12.726562 L 16.625 13.628906 L 17.351562 13.628906 L 17.011719 12.703125 C 17.207031 12.671875 17.308594 12.613281 17.40625 12.527344 C 17.542969 12.402344 17.636719 12.226562 17.714844 11.96875 C 17.828125 11.597656 17.761719 11.382812 17.6875 11.273438 C 17.585938 11.125 17.375 11.011719 16.972656 11.011719 Z M 18.453125 14.527344 C 16.46875 15.550781 13.824219 16.117188 11 16.117188 C 8.175781 16.117188 5.53125 15.550781 3.546875 14.527344 C 1.636719 13.539062 0.585938 12.253906 0.585938 10.910156 C 0.585938 9.5625 1.636719 8.277344 3.546875 7.292969 C 5.53125 6.265625 8.175781 5.703125 11 5.703125 C 13.824219 5.703125 16.46875 6.265625 18.453125 7.292969 C 20.363281 8.277344 21.414062 9.5625 21.414062 10.910156 C 21.414062 12.253906 20.363281 13.539062 18.453125 14.527344 Z M 18.722656 6.773438 C 16.65625 5.703125 13.914062 5.117188 11 5.117188 C 8.085938 5.117188 5.34375 5.703125 3.277344 6.773438 C 2.054688 7.40625 0 8.785156 0 10.910156 C 0 13.035156 2.054688 14.414062 3.277344 15.046875 C 5.34375 16.113281 8.085938 16.703125 11 16.703125 C 13.914062 16.703125 16.65625 16.113281 18.722656 15.046875 C 19.945312 14.414062 22 13.035156 22 10.910156 C 22 8.78125 19.945312 7.40625 18.722656 6.773438 Z M 18.175781 13.988281 C 16.042969 15.089844 13.386719 15.511719 11 15.511719 C 8.613281 15.511719 5.960938 15.089844 3.824219 13.988281 C 2.695312 13.40625 1.191406 12.328125 1.191406 10.910156 C 1.191406 9.488281 2.691406 8.414062 3.824219 7.832031 C 5.960938 6.726562 8.613281 6.308594 11 6.308594 C 13.386719 6.308594 16.042969 6.726562 18.175781 7.832031 C 19.308594 8.414062 20.808594 9.488281 20.808594 10.910156 C 20.808594 12.328125 19.308594 13.40625 18.175781 13.988281 Z M 18.289062 7.613281 C 16.121094 6.496094 13.421875 6.066406 11 6.066406 C 8.578125 6.066406 5.882812 6.496094 3.710938 7.613281 C 2.496094 8.242188 0.949219 9.378906 0.949219 10.910156 C 0.949219 12.4375 2.496094 13.574219 3.710938 14.203125 C 5.882812 15.324219 8.582031 15.753906 11 15.753906 C 13.421875 15.753906 16.121094 15.324219 18.289062 14.203125 C 19.503906 13.574219 21.050781 12.4375 21.050781 10.910156 C 21.050781 9.378906 19.507812 8.242188 18.289062 7.613281 Z M 5.53125 11.347656 L 3.554688 12 L 3.3125 12.660156 L 5.058594 12.660156 L 5.285156 12.035156 L 4.074219 12.035156 L 5.449219 11.570312 Z M 13.398438 8.445312 L 13.683594 8.445312 C 13.878906 8.445312 13.988281 8.511719 13.988281 8.660156 C 13.992188 8.757812 13.964844 8.890625 13.863281 9.179688 C 13.773438 9.4375 13.703125 9.585938 13.601562 9.695312 C 13.519531 9.78125 13.414062 9.820312 13.164062 9.820312 L 12.925781 9.820312 Z M 12.769531 8.160156 L 11.988281 10.445312 L 13.140625 10.445312 C 13.636719 10.445312 13.917969 10.335938 14.148438 10.089844 C 14.4375 9.785156 14.699219 8.992188 14.691406 8.558594 C 14.679688 8.113281 14.394531 7.824219 13.789062 7.824219 L 12.742188 7.824219 L 12.71875 7.890625 L 12.765625 7.9375 C 12.8125 7.984375 12.8125 8.039062 12.769531 8.160156 Z M 17.125 8.761719 L 15.382812 8.761719 L 15.15625 9.386719 L 16.363281 9.386719 L 14.992188 9.851562 L 14.90625 10.074219 L 16.882812 9.425781 Z M 9.332031 10.441406 L 9.992188 10.441406 L 10.5625 8.746094 L 10.898438 10.441406 L 11.554688 10.441406 L 12.453125 7.824219 L 11.765625 7.824219 L 11.285156 9.246094 L 11.011719 7.824219 L 10.085938 7.824219 L 10.0625 7.890625 L 10.109375 7.9375 C 10.160156 7.984375 10.15625 8.039062 10.113281 8.160156 Z M 4.625 10.445312 L 6.410156 10.441406 L 6.625 9.820312 L 5.585938 9.820312 L 6.273438 7.824219 L 5.378906 7.824219 L 5.355469 7.890625 L 5.398438 7.9375 C 5.449219 7.984375 5.445312 8.039062 5.40625 8.160156 Z M 8.425781 8.546875 L 8.449219 8.546875 L 8.460938 9.339844 L 7.980469 9.339844 Z M 6.597656 10.441406 L 7.355469 10.441406 L 7.6875 9.863281 L 8.472656 9.863281 L 8.480469 10.441406 L 9.171875 10.441406 L 9.023438 7.824219 L 7.988281 7.824219 L 7.964844 7.890625 L 8 7.925781 C 8.054688 7.976562 8.03125 8.054688 7.832031 8.375 Z M 6.597656 10.441406 "/>
</g>
</defs>
<g id="surface1">
<use xlink:href="#surface5" mask="url(#mask0)"/>
</g>
</svg>
