<?xml version="1.0" encoding="UTF-8"?>
<svg xmlns="http://www.w3.org/2000/svg" xmlns:xlink="http://www.w3.org/1999/xlink" width="px" height="px" viewBox="0 0 8 8" version="1.1">
<g id="surface1">
<path style=" stroke:none;fill-rule:evenodd;fill:rgb(40.000001%,40.000001%,40.000001%);fill-opacity:1;" d="M 7.25 6.75 L 7.25 2.703125 C 7.25 2.574219 7.195312 2.449219 7.101562 2.355469 L 4.898438 0.144531 C 4.804688 0.0507812 4.675781 -0.00390625 4.539062 0 L 0.75 0 L 0.75 6.75 C 0.75 7.441406 1.308594 8 2 8 L 6 8 C 6.691406 8 7.25 7.441406 7.25 6.75 M 6.5 6.75 L 6.5 3.25 L 4 3.25 L 4 0.75 L 1.5 0.75 L 1.5 6.75 C 1.5 7.027344 1.722656 7.25 2 7.25 L 6 7.25 C 6.277344 7.25 6.5 7.027344 6.5 6.75 M 4.75 2.5 L 4.75 1.058594 L 6.191406 2.5 Z M 2.566406 2.5 L 2.253906 2.5 L 2.253906 3.125 L 3.316406 3.125 L 3.316406 2.5 Z M 2.253906 4 L 5.816406 4 L 5.816406 4.625 L 2.25 4.625 Z M 2.566406 5.5 L 2.253906 5.5 L 2.253906 6.125 L 5.816406 6.125 L 5.816406 5.5 Z M 2.566406 5.5 "/>
</g>
</svg>
