<?xml version="1.0" encoding="UTF-8"?>
<svg xmlns="http://www.w3.org/2000/svg" xmlns:xlink="http://www.w3.org/1999/xlink" width="px" height="px" viewBox="0 0 8 8" version="1.1">
<g id="surface1">
<path style=" stroke:none;fill-rule:evenodd;fill:rgb(40.000001%,40.000001%,40.000001%);fill-opacity:1;" d="M 5.136719 7.050781 C 5.953125 6.746094 6.613281 6.125 6.96875 5.324219 C 6.558594 5.394531 6.105469 5.453125 5.621094 5.496094 C 5.515625 6.105469 5.355469 6.621094 5.136719 7.046875 M 4 8 C 6.210938 8 8 6.210938 8 4 C 8 1.789062 6.210938 0 4 0 C 1.789062 0 0 1.789062 0 4 C 0 6.210938 1.789062 8 4 8 M 4.238281 7.238281 C 4.082031 7.25 3.917969 7.25 3.761719 7.238281 L 3.75 7.238281 C 3.566406 7.050781 3.425781 6.824219 3.328125 6.578125 C 3.203125 6.285156 3.097656 5.9375 3.015625 5.539062 C 3.667969 5.570312 4.320312 5.570312 4.976562 5.539062 C 4.890625 5.941406 4.785156 6.285156 4.660156 6.578125 C 4.5625 6.824219 4.421875 7.046875 4.238281 7.234375 Z M 5.710938 4.859375 C 6.261719 4.808594 6.753906 4.738281 7.183594 4.644531 C 7.265625 4.21875 7.265625 3.78125 7.183594 3.355469 C 6.75 3.265625 6.261719 3.191406 5.710938 3.140625 C 5.765625 3.710938 5.765625 4.289062 5.710938 4.859375 M 5.074219 3.089844 C 5.140625 3.695312 5.140625 4.304688 5.074219 4.910156 C 4.359375 4.949219 3.640625 4.949219 2.925781 4.910156 C 2.859375 4.304688 2.859375 3.695312 2.925781 3.089844 C 3.640625 3.050781 4.359375 3.050781 5.074219 3.089844 M 5.625 2.503906 C 6.109375 2.546875 6.558594 2.605469 6.96875 2.675781 C 6.613281 1.878906 5.953125 1.257812 5.136719 0.953125 C 5.351562 1.375 5.515625 1.890625 5.625 2.503906 M 4.238281 0.75 L 4.246094 0.761719 C 4.382812 0.882812 4.523438 1.101562 4.664062 1.414062 C 4.792969 1.710938 4.898438 2.058594 4.980469 2.453125 C 4.328125 2.421875 3.671875 2.421875 3.019531 2.453125 C 3.101562 2.054688 3.207031 1.707031 3.335938 1.414062 C 3.433594 1.167969 3.574219 0.945312 3.761719 0.753906 C 3.917969 0.742188 4.082031 0.742188 4.238281 0.753906 M 2.863281 0.953125 C 2.046875 1.257812 1.386719 1.878906 1.03125 2.675781 C 1.476562 2.597656 1.925781 2.539062 2.378906 2.503906 C 2.484375 1.894531 2.644531 1.378906 2.863281 0.953125 M 2.289062 3.140625 C 1.738281 3.191406 1.246094 3.265625 0.816406 3.355469 C 0.734375 3.78125 0.734375 4.21875 0.816406 4.644531 C 1.25 4.734375 1.738281 4.808594 2.289062 4.859375 C 2.234375 4.289062 2.234375 3.710938 2.289062 3.140625 M 2.375 5.496094 C 1.890625 5.453125 1.441406 5.398438 1.03125 5.324219 C 1.386719 6.121094 2.046875 6.742188 2.863281 7.046875 C 2.648438 6.621094 2.484375 6.105469 2.375 5.496094 "/>
</g>
</svg>
