<?xml version="1.0" encoding="UTF-8"?>
<svg xmlns="http://www.w3.org/2000/svg" xmlns:xlink="http://www.w3.org/1999/xlink" width="px" height="px" viewBox="0 0 197 40" version="1.1">
<g id="surface1">
<path style=" stroke:none;fill-rule:nonzero;fill:rgb(0%,0%,0%);fill-opacity:1;" d="M 131 0 L 165.25 0 L 165.25 6.351562 L 151.648438 6.351562 L 151.648438 39.648438 L 144.851562 39.648438 L 144.851562 6.351562 L 131 6.351562 Z M 74.5 0 L 74.5 6.351562 L 47 6.351562 L 47 16.550781 L 69.148438 16.550781 L 69.148438 22.851562 L 47 22.851562 L 47 33.351562 L 74.5 33.351562 L 74.5 39.648438 L 40.25 39.648438 L 40.25 0 L 74.601562 0 Z M 91.648438 0 L 82.75 0 L 114.648438 39.699219 L 123.601562 39.699219 L 107.601562 19.851562 L 123.601562 0.0507812 L 114.648438 0.0507812 L 103.148438 14.351562 L 91.648438 0.0507812 Z M 100.800781 28.351562 L 96.300781 22.851562 L 82.75 39.699219 L 91.648438 39.699219 Z M 100.800781 28.351562 "/>
<path style=" stroke:none;fill-rule:nonzero;fill:rgb(0%,0%,0%);fill-opacity:1;" d="M 40.5 39.648438 L 8.5 0 L 0 0 L 0 39.648438 L 6.800781 39.648438 L 6.800781 8.5 L 31.898438 39.648438 Z M 166.800781 39.449219 C 166.300781 39.449219 165.898438 39.25 165.550781 38.949219 C 165.199219 38.648438 165 38.148438 165 37.648438 C 165 37.148438 165.148438 36.75 165.5 36.398438 C 165.851562 36.050781 166.300781 35.898438 166.800781 35.898438 C 167.300781 35.898438 167.699219 36.050781 168.050781 36.398438 C 168.652344 36.953125 168.78125 37.855469 168.351562 38.550781 C 168.03125 39.082031 167.46875 39.421875 166.851562 39.449219 Z M 178.398438 22.699219 L 181.398438 22.699219 L 181.398438 34.351562 C 181.398438 35.398438 181.199219 36.351562 180.75 37.101562 C 180.300781 37.855469 179.640625 38.460938 178.851562 38.851562 C 178.050781 39.25 177.101562 39.5 176 39.5 C 175 39.5 174.148438 39.300781 173.351562 39 C 172.550781 38.699219 171.949219 38.101562 171.5 37.398438 C 171.050781 36.75 170.800781 35.898438 170.800781 34.898438 L 173.800781 34.898438 C 173.851562 35.300781 173.949219 35.699219 174.148438 36 C 174.351562 36.300781 174.648438 36.601562 174.949219 36.75 C 175.300781 36.949219 175.699219 37 176.148438 37 C 176.648438 37 177.050781 36.898438 177.351562 36.699219 C 177.703125 36.488281 177.980469 36.175781 178.148438 35.800781 C 178.300781 35.398438 178.398438 34.898438 178.398438 34.300781 Z M 193.851562 27.25 C 193.789062 26.574219 193.417969 25.964844 192.851562 25.601562 C 192.207031 25.203125 191.457031 25.011719 190.699219 25.050781 C 190.050781 25.050781 189.5 25.148438 189.050781 25.300781 C 188.601562 25.5 188.25 25.800781 188.050781 26.101562 C 187.585938 26.667969 187.523438 27.46875 187.898438 28.101562 C 188.050781 28.351562 188.25 28.550781 188.550781 28.699219 L 189.449219 29.199219 L 190.449219 29.449219 L 192.050781 29.851562 C 192.699219 30 193.300781 30.199219 193.898438 30.449219 C 194.472656 30.671875 195.011719 30.976562 195.5 31.351562 C 196.476562 32.140625 197.03125 33.34375 197 34.601562 C 197 35.601562 196.75 36.449219 196.25 37.148438 C 195.699219 37.933594 194.9375 38.539062 194.050781 38.898438 C 193.148438 39.300781 192 39.5 190.648438 39.5 C 189.351562 39.5 188.199219 39.300781 187.25 38.898438 C 186.25 38.5 185.550781 37.898438 185 37.148438 C 184.445312 36.324219 184.148438 35.347656 184.148438 34.351562 L 187.148438 34.351562 C 187.1875 35.410156 187.886719 36.332031 188.898438 36.648438 C 189.398438 36.851562 190 36.949219 190.601562 36.949219 C 191.25 36.949219 191.851562 36.851562 192.351562 36.648438 C 192.851562 36.449219 193.25 36.148438 193.550781 35.800781 C 193.808594 35.453125 193.949219 35.03125 193.949219 34.601562 C 193.949219 34.148438 193.851562 33.800781 193.601562 33.5 C 193.277344 33.226562 192.925781 32.992188 192.550781 32.800781 L 190.949219 32.300781 L 189.050781 31.800781 C 187.648438 31.449219 186.550781 30.949219 185.75 30.199219 C 184.941406 29.480469 184.5 28.433594 184.550781 27.351562 C 184.542969 26.445312 184.84375 25.5625 185.398438 24.851562 C 185.9375 24.074219 186.683594 23.46875 187.550781 23.101562 C 188.550781 22.699219 189.550781 22.5 190.75 22.5 C 191.898438 22.5 192.949219 22.699219 193.851562 23.101562 C 194.75 23.5 195.449219 24.101562 196 24.800781 C 196.5 25.5 196.75 26.300781 196.75 27.300781 L 193.851562 27.300781 Z M 193.851562 27.25 "/>
</g>
</svg>
