<?xml version="1.0" encoding="UTF-8"?>
<svg xmlns="http://www.w3.org/2000/svg" xmlns:xlink="http://www.w3.org/1999/xlink" width="px" height="px" viewBox="0 0 8 8" version="1.1">
<g id="surface1">
<path style=" stroke:none;fill-rule:evenodd;fill:rgb(40.000001%,40.000001%,40.000001%);fill-opacity:1;" d="M 0.75 1.25 L 7.25 1.25 L 7.25 6.25 C 7.25 6.527344 7.027344 6.75 6.75 6.75 L 1.25 6.75 C 0.972656 6.75 0.75 6.527344 0.75 6.25 Z M 0 0.5 L 8 0.5 L 8 6.25 C 8 6.941406 7.441406 7.5 6.75 7.5 L 1.25 7.5 C 0.558594 7.5 0 6.941406 0 6.25 Z M 1.875 2.75 C 2.082031 2.75 2.25 2.582031 2.25 2.375 C 2.25 2.167969 2.082031 2 1.875 2 C 1.667969 2 1.5 2.167969 1.5 2.375 C 1.5 2.582031 1.667969 2.75 1.875 2.75 M 3.5 2.375 C 3.5 2.582031 3.332031 2.75 3.125 2.75 C 2.917969 2.75 2.75 2.582031 2.75 2.375 C 2.75 2.167969 2.917969 2 3.125 2 C 3.332031 2 3.5 2.167969 3.5 2.375 M 4.375 2.75 C 4.582031 2.75 4.75 2.582031 4.75 2.375 C 4.75 2.167969 4.582031 2 4.375 2 C 4.167969 2 4 2.167969 4 2.375 C 4 2.582031 4.167969 2.75 4.375 2.75 "/>
</g>
</svg>
